PathFileType	4	(X/Y/Z)	/Users/rkoike/Documents/python/sports2d/webcam_20250611_152632/webcam_20250611_152632_px_person02.trc
DataRate	CameraRate	NumFrames	NumMarkers	Units	OrigDataRate	OrigDataStartFrame	OrigNumFrames
30	30	8	22	m	30	621	2485
Frame#	Time	Hip			RHip			RKnee			RAnkle			RBigToe			RSmallToe			RHeel			LHip			LKnee			LAnkle			LBigToe			LSmallToe			LHeel			Neck			Head			Nose			RShoulder			RElbow			RWrist			LShoulder			LElbow			LWrist			
		X1	Y1	Z1	X2	Y2	Z2	X3	Y3	Z3	X4	Y4	Z4	X5	Y5	Z5	X6	Y6	Z6	X7	Y7	Z7	X8	Y8	Z8	X9	Y9	Z9	X10	Y10	Z10	X11	Y11	Z11	X12	Y12	Z12	X13	Y13	Z13	X14	Y14	Z14	X15	Y15	Z15	X16	Y16	Z16	X17	Y17	Z17	X18	Y18	Z18	X19	Y19	Z19	X20	Y20	Z20	X21	Y21	Z21	X22	Y22	Z22
621	20.708333333333332	720.1810317218109	480.05785974222647	0.0	863.6411632289752	505.75879902508296	0.0	902.7451616931055	700.9821780839453	0.0	1221.055046081543	614.5102825164795	0.0	1526.68017578125	391.271484375	0.0	1426.56787109375	65.04345703125	0.0	883.0827199004289	716.9078278839888	0.0	593.1083437246958	501.2786351661071	0.0	621.9648792438778	712.5728766005137	0.0	1228.387490272522	619.3985786437988	0.0	629.8403795030381	611.4361839161979	0.0			0.0	989.3256765408441	702.8535339434749	0.0	774.7892557960936	5.361944276385225	0.0	1161.0409480202452	127.44730300778893	0.0	1223.1962890625	113.96777343750001	0.0	1030.5566488539866	-6.790576748602671	0.0	1086.4718068906532	198.6637356959171	0.0	1058.7918395394565	520.8014949847444	0.0	503.27047670358735	0.12078561231291096	0.0	461.98849020255716	231.68579689466773	0.0	530.5568076614276	495.3875435730785	0.0
622	20.741680085882983	716.8081352195998	478.0126518259993	0.0	861.3693233694954	504.0928179779825	0.0	902.0907118380527	701.0300350365388	0.0	1221.055046081543	614.5102825164795	0.0	1526.68017578125	391.271484375	0.0	1426.56787109375	65.04345703125	0.0	883.0827199004289	716.9078278839888	0.0	591.4105133238771	498.7501441368393	0.0	621.8956240261837	713.5948927171904	0.0	1228.387490272522	619.3985786437988	0.0	629.8403795030381	611.4361839161979	0.0			0.0	989.3256765408443	702.8535339434749	0.0	779.69474978067	5.883162194030376	0.0	1160.8126336397904	126.84483127965697	0.0	1223.1962890625	113.96777343750003	0.0	1032.9568557638834	-9.76015017340182	0.0	1085.562844319613	199.0039911882629	0.0	1058.6499271291689	521.7157033083037	0.0	503.94714646059856	-2.676183779569304	0.0	462.36279972423733	231.86159068980086	0.0	530.8180579616585	497.6868946197291	0.0
623	20.775026838432634	717.1347067504018	475.7360079726379	0.0	861.9545537799944	505.1346840279673	0.0	899.8478297906275	701.186511733379	0.0	1221.055046081543	614.5102825164795	0.0	1526.68017578125	391.271484375	0.0	1426.56787109375	65.04345703125	0.0	883.0827199004289	716.907827883989	0.0	591.5267773141521	497.98510736788273	0.0	619.2506808992778	714.2790327784851	0.0	1228.387490272522	619.3985786437988	0.0	629.8403795030381	611.4361839161979	0.0			0.0	989.3256765408443	702.8535339434749	0.0	779.1596903522768	8.149723922678717	0.0	1160.6298107054404	126.362400533653	0.0	1223.1962890625	113.96777343750003	0.0	1032.5656603444666	-9.978686322034811	0.0	1085.8646278171868	200.9670847187937	0.0	1056.2823373476358	521.2365725881767	0.0	502.5585443768775	-4.109147210230343	0.0	462.3600721978688	233.08300855239543	0.0	530.8658368740904	499.4918858186138	0.0
624	20.808373590982285	721.0255572247266	475.4665616234244	0.0	864.0970617593057	504.8432260680735	0.0	897.3466005442116	701.3597680454321	0.0	1221.055046081543	614.5102825164795	0.0	1526.68017578125	391.271484375	0.0	1426.56787109375	65.04345703125	0.0	883.0827199004289	716.907827883989	0.0	593.4380641630389	497.9891604527578	0.0	619.9302958616306	712.1898828523304	0.0	1228.387490272522	619.3985786437988	0.0	629.8403795030381	611.4361839161979	0.0			0.0	989.3256765408441	702.8535339434749	0.0	774.347653725361	8.97720792397526	0.0	1160.6069601691086	126.30210259612771	0.0	1223.1962890625	113.96777343750001	0.0	1028.8082128807696	-6.320683757136901	0.0	1086.6026513529584	200.56582189876758	0.0	1055.9697186546607	521.1445578806782	0.0	500.9668328197297	0.8736356673928153	0.0	462.94642219655753	235.06023150239432	0.0	531.4998455186413	501.5830521641218	0.0
625	20.841720343531936	721.6947860449693	475.3898573003284	0.0	864.8647778727534	502.07638777563864	0.0	895.3946488681197	701.4960892532808	0.0	1221.055046081543	614.5102825164795	0.0	1526.68017578125	391.271484375	0.0	1426.56787109375	65.04345703125	0.0	883.0827199004289	716.9078278839888	0.0	593.867815199942	496.2593278824622	0.0	622.9065872318133	709.8224619319132	0.0	1228.387490272522	619.3985786437988	0.0	629.8403795030381	611.4361839161979	0.0			0.0	989.3256765408441	702.8535339434749	0.0	774.1357467343543	9.784883857057542	0.0	1160.6343158735265	126.37428837775016	0.0	1223.1962890625	113.96777343750001	0.0	1028.9182276368579	-3.913613078573621	0.0	1086.332760235346	197.93883414470744	0.0	1057.730322544572	521.5699300717627	0.0	502.9540502213223	5.590992133979362	0.0	463.89277149124683	235.16564208589568	0.0	531.7009591378225	502.49650743506356	0.0
626	20.875067096081587	718.032243125116	473.97667636829914	0.0	864.6593334917422	501.6327163672655	0.0	894.0906749137058	701.6041437763562	0.0	1221.055046081543	614.5102825164795	0.0	1526.68017578125	391.271484375	0.0	1426.56787109375	65.04345703125	0.0	883.0827199004289	716.9078278839888	0.0	592.0408047224146	494.5453678461164	0.0	621.8901375358237	710.2221719403765	0.0	1228.387490272522	619.3985786437988	0.0	629.8403795030381	611.4361839161979	0.0			0.0	989.3256765408443	702.8535339434749	0.0	777.330379463122	12.501737319676756	0.0	1160.648899049292	126.41277028392334	0.0	1223.1962890625	113.96777343750003	0.0	1033.4675047523745	-4.7935141680993665	0.0	1085.712135673065	197.27578425572554	0.0	1057.3679114140239	521.0446457290979	0.0	506.0905011941032	3.682658752784834	0.0	463.559211771839	233.34561287170078	0.0	530.194971316071	500.09581698018155	0.0
627	20.908413848631238	716.8049567508235	473.53469841560695	0.0	865.062718682132	504.6386359230218	0.0	893.1367453063787	701.714789879731	0.0	1221.055046081543	614.5102825164795	0.0	1526.68017578125	391.271484375	0.0	1426.56787109375	65.04345703125	0.0	883.0827199004289	716.907827883989	0.0	591.1268656261341	495.7608017350309	0.0	618.2323058845756	711.6809820095121	0.0	1228.387490272522	619.3985786437988	0.0	629.8403795030381	611.4361839161979	0.0			0.0	989.3256765408443	702.8535339434749	0.0	776.0900484115185	13.325228605769349	0.0	1160.6489312552303	126.41285529151496	0.0	1223.1962890625	113.96777343750003	0.0	1034.457196609221	-5.375981856981675	0.0	1085.5430837928689	199.4868565221686	0.0	1055.2236789091514	519.8528579666842	0.0	505.4532593368384	0.2727369564191913	0.0	462.42650218234235	232.7736729773254	0.0	529.0485497207665	496.8465851059506	0.0
628	20.94176060118089	720.0978747619604	475.32484285985305	0.0	865.3498732247509	505.6415801367413	0.0	892.3497767380713	701.7740397328217	0.0	1221.055046081543	614.5102825164795	0.0	1526.68017578125	391.271484375	0.0	1426.56787109375	65.04345703125	0.0	883.0827199004289	716.907827883989	0.0	592.1877477479641	497.82920690902426	0.0	618.8210463327941	711.236954315158	0.0	1228.387490272522	619.3985786437988	0.0	629.8403795030381	611.4361839161979	0.0			0.0	989.3256765408441	702.8535339434749	0.0	772.507886292723	9.420834751488815	0.0	1160.6460875412508	126.4053513422657	0.0	1223.1962890625	113.96777343750001	0.0	1030.6205641194363	-4.650532764190625	0.0	1084.9905614463232	201.06675832160224	0.0	1055.665402866604	519.8100797011122	0.0	502.93059587971203	1.5618624654947726	0.0	462.75586586347265	234.44528189463813	0.0	530.4463055610887	496.8582421401283	0.0
